<?xml version="1.0" encoding="UTF-8"?>
<svg width="16px" height="16px" viewBox="0 0 16 16" version="1.1" xmlns="http://www.w3.org/2000/svg" xmlns:xlink="http://www.w3.org/1999/xlink">
    <title>Digital Pulp Logo: DP on a cyan colored square</title>
    <g id="Page-1" stroke="none" stroke-width="1" fill="none" fill-rule="evenodd">
        <rect id="icon" fill="#000000" x="0" y="0" width="16" height="16"></rect>
        <path d="M5.958,6.69288889 L5.416,6.69288889 L5.416,9.48955556 L5.95177778,9.48955556 C6.61733333,9.48955556 6.84511111,9.23111111 6.84511111,8.02977778 C6.84511111,6.87133333 6.53088889,6.69288889 5.958,6.69288889 Z M5.96977778,10.3522222 L4.36888889,10.3522222 L4.36888889,5.83644444 L5.95177778,5.83644444 C7.12222222,5.83644444 7.95977778,6.39111111 7.95977778,8.00488889 C7.95977778,9.56977778 7.24577778,10.3522222 5.96977778,10.3522222 L5.96977778,10.3522222 Z" id="Fill-3" fill="#FFFFFE"></path>
        <path d="M10.3297778,6.68044444 L9.83755556,6.68044444 L9.83755556,8.03577778 L10.3055556,8.03577778 C10.632,8.03577778 10.8597778,7.90066667 10.8597778,7.32111111 C10.8597778,6.80377778 10.632,6.68044444 10.3297778,6.68044444 Z M10.3237778,8.88577778 L9.83755556,8.88577778 L9.83755556,10.3522222 L8.79044444,10.3522222 L8.79044444,5.83644444 L10.3671111,5.83644444 C11.3528889,5.83644444 11.9504444,6.24933333 11.9504444,7.30866667 C11.9504444,8.45511111 11.2106667,8.88577778 10.3237778,8.88577778 L10.3237778,8.88577778 Z" id="Fill-4" fill="#FFFFFE"></path>
    </g>
</svg>
