<?xml version="1.0" encoding="UTF-8"?>
<svg width="72px" height="72px" viewBox="0 0 72 72" version="1.1" xmlns="http://www.w3.org/2000/svg" xmlns:xlink="http://www.w3.org/1999/xlink">
    <title>DP-logo-square-blue</title>
    <g id="DP-logo-square-blue" stroke="none" stroke-width="1" fill="none" fill-rule="evenodd">
        <polygon id="Fill-1" fill="#00A3DA" points="0 71.94 72.001 71.94 72.001 0.099 0 0.099"></polygon>
        <path d="M26.811,30.217 L24.372,30.217 L24.372,42.802 L26.783,42.802 C29.778,42.802 30.803,41.639 30.803,36.233 C30.803,31.02 29.389,30.217 26.811,30.217 Z M26.864,46.684 L19.66,46.684 L19.66,26.363 L26.783,26.363 C32.05,26.363 35.819,28.859 35.819,36.121 C35.819,43.163 32.606,46.684 26.864,46.684 L26.864,46.684 Z" id="Fill-3" fill="#FFFFFE"></path>
        <path d="M46.484,30.161 L44.269,30.161 L44.269,36.26 L46.375,36.26 C47.844,36.26 48.869,35.652 48.869,33.044 C48.869,30.716 47.844,30.161 46.484,30.161 Z M46.457,40.085 L44.269,40.085 L44.269,46.684 L39.557,46.684 L39.557,26.363 L46.652,26.363 C51.088,26.363 53.777,28.221 53.777,32.988 C53.777,38.147 50.448,40.085 46.457,40.085 L46.457,40.085 Z" id="Fill-4" fill="#FFFFFE"></path>
    </g>
</svg>
